<?xml version="1.0" encoding="UTF-8"?>
<svg version="1.1" xmlns="http://www.w3.org/2000/svg" width="1080" height="1081">
<path d="M0 0 C3.53064211 1.38427362 6.80355979 2.90979826 10.11328125 4.765625 C11.10110596 5.31847168 12.08893066 5.87131836 13.10668945 6.44091797 C14.69356567 7.33641357 14.69356567 7.33641357 16.3125 8.25 C17.42262451 8.87406738 18.53274902 9.49813477 19.67651367 10.14111328 C28.0881674 14.88498823 36.44188271 19.72441511 44.77148438 24.61083984 C51.8317323 28.7491714 58.927491 32.82195069 66.04116821 36.86752319 C77.09706168 43.15576142 88.07098231 49.56440844 98.99975586 56.07202148 C106.59099531 60.5872671 114.21744522 65.03573008 121.875 69.4375 C134.11343176 76.47341587 146.29626688 83.60073759 158.46740723 90.75212097 C162.77580764 93.28302421 167.08815296 95.80710689 171.40234375 98.328125 C183.83070223 105.59326981 196.22419317 112.90975274 208.55444336 120.34082031 C217.04395502 125.44864848 225.59119085 130.45307248 234.14834595 135.44622803 C243.81268951 141.08947394 253.39212507 146.86076031 262.94107056 152.69671631 C271.22444224 157.7550764 279.57471496 162.68062194 288 167.5 C297.5425652 172.96011869 306.97787107 178.57815261 316.35916138 184.30944824 C326.00571443 190.20248988 335.70706259 195.99661418 345.4375 201.75 C354.99056166 207.40034648 364.49132816 213.11476939 373.90087891 219.00219727 C381.96287122 224.02451285 390.13708046 228.85312422 398.3125 233.6875 C408.96262578 239.9865227 419.60062052 246.29116548 430 253 C431.11117187 253.56203125 432.22234375 254.1240625 433.3671875 254.703125 C436 257 436 257 436.65625 260.83203125 C436.63765433 262.49290019 436.58206792 264.15355567 436.5 265.8125 C436.47518555 266.75625488 436.45037109 267.70000977 436.42480469 268.67236328 C436.31861716 272.11702218 436.15889714 275.55737742 436 279 C435.94590099 280.40245453 435.89322588 281.80496455 435.84179688 283.20751953 C432.78353513 365.59749779 417.93358547 446.83859479 354 615 C353.69535828 615.62777344 353.39071655 616.25554688 353.07684326 616.90234375 C344.64063418 634.2815831 335.73448529 651.30437775 326 668 C325.12979862 669.50887837 324.25998591 671.01798098 323.390625 672.52734375 C308.45840469 698.31668582 291.85238277 723.26682488 274 747.125 C273.52892822 747.75994385 273.05785645 748.3948877 272.57250977 749.04907227 C269.84228322 752.68952741 267.0038622 756.19125786 264.03515625 759.640625 C263.37451172 760.42937012 262.71386719 761.21811523 262.03320312 762.03076172 C260.75094845 763.55606021 259.44196636 765.0594121 258.10351562 766.53564453 C254.74906461 770.51199016 254.74906461 770.51199016 254.20849609 775.49682617 C254.97375396 778.09667739 255.92246313 780.51474198 257 783 C257.44157366 784.28809203 257.87005707 785.58079657 258.28125 786.87890625 C258.6834375 788.09449219 259.085625 789.31007813 259.5 790.5625 C266.98413964 814.36437902 268.50809885 840.1522251 257.9375 863.25 C246.30357903 884.80988333 225.68332511 897.70129179 202.7265625 904.6875 C122.22335814 927.73627428 29.58177659 900.4974866 -177.45703125 813.08203125 C-179.30490257 812.0550744 -181.15255893 811.02773065 -183 810 C-183.9079834 809.49774902 -184.8159668 808.99549805 -185.75146484 808.47802734 C-207.99220159 796.15965714 -229.80095961 783.03868454 -251 769 C-252.44140515 768.05208166 -253.88281144 767.10416505 -255.32421875 766.15625 C-278.20960926 751.05204248 -300.62179133 735.18165805 -322 718 C-322.6403418 717.4858252 -323.28068359 716.97165039 -323.94042969 716.44189453 C-335.78310107 706.91452551 -347.49848726 697.25888658 -358.75 687.03515625 C-360.74989375 685.22622457 -362.77269432 683.45108199 -364.8125 681.6875 C-375.10123269 672.69932849 -384.91837879 663.24589253 -394.55908203 653.57128906 C-396.39110995 651.7338424 -398.22850605 649.9018835 -400.06640625 648.0703125 C-405.92479897 642.21557387 -411.65572861 636.33421457 -417 630 C-418.04457428 628.80787594 -419.09145595 627.61776978 -420.140625 626.4296875 C-457.91158597 583.34512357 -497.25888763 528.99156575 -494 469 C-493.06674588 459.61317557 -490.48807015 450.32440733 -486 442 C-485.34 441.67 -484.68 441.34 -484 441 C-483.79246094 442.12792969 -483.58492187 443.25585938 -483.37109375 444.41796875 C-475.22371909 486.80073029 -452.90423408 522.8389673 -426 556 C-425.22011719 556.97324219 -424.44023437 557.94648437 -423.63671875 558.94921875 C-419.28833967 564.33399906 -414.786972 569.54103072 -410.125 574.65625 C-408.17505276 576.80692711 -406.26973871 578.98824971 -404.375 581.1875 C-401.62591111 584.34831879 -398.72554499 587.29619417 -395.73828125 590.23046875 C-393.97042684 592.03010481 -392.32745458 593.89601912 -390.6875 595.8125 C-384.59742824 602.85841262 -377.93472398 609.30435443 -370.86328125 615.35546875 C-368.99548207 617.00398752 -367.24544376 618.72303581 -365.5 620.5 C-361.8369356 624.2121233 -357.95145365 627.59962071 -354 631 C-352.91735087 631.94590785 -351.83537557 632.89258723 -350.75390625 633.83984375 C-336.64917257 646.17145458 -322.22050201 658.02898015 -307.25390625 669.30078125 C-304.89388687 671.07999863 -302.54060004 672.86789397 -300.1875 674.65625 C-284.44888063 686.58085253 -268.34459656 697.96921532 -251.83203125 708.79785156 C-250.6064653 709.60204756 -249.38251316 710.40870812 -248.16015625 711.21777344 C-226.06247309 725.83853782 -203.23757096 739.28261113 -180 752 C-178.97793457 752.56251465 -177.95586914 753.1250293 -176.90283203 753.70458984 C-98.27036458 796.91858018 -12.88211205 832.41889928 76.35864258 845.60083008 C78.47510127 845.92067572 80.58326898 846.29518574 82.6875 846.6875 C88.47322254 845.48668966 91.94351197 841.0968798 96 837 C97.00862882 835.99170134 98.01775708 834.98390208 99.02734375 833.9765625 C100.57983228 832.42456402 102.12964091 830.87029903 103.671875 829.30810547 C106.41662676 826.53587073 109.2051192 823.88897507 112.1875 821.375 C116.01551107 818.11410168 119.25630667 814.45030261 122.57421875 810.6796875 C125.1673632 807.81511891 127.87336246 805.08530897 130.625 802.375 C134.33201546 798.70402496 137.87933631 794.98242033 141.265625 791.015625 C143.25912581 788.69885379 145.31554388 786.44580016 147.375 784.1875 C151.20036325 779.94423992 154.8509409 775.59140503 158.44140625 771.1484375 C160.32262409 768.82188546 162.23129752 766.52033191 164.15234375 764.2265625 C173.16694686 753.43741091 181.67257555 742.3260198 190 731 C190.56074219 730.24074219 191.12148438 729.48148438 191.69921875 728.69921875 C216.3381127 695.28162149 237.74912525 659.7594343 257 623 C257.50740723 622.03191406 258.01481445 621.06382812 258.53759766 620.06640625 C305.41219924 531.32743527 305.41219924 531.32743527 322 435 C320.30115571 431.7295499 320.30115571 431.7295499 317.75 428.8125 C317.30253418 428.26279541 316.85506836 427.71309082 316.39404297 427.14672852 C311.66651975 421.42012314 306.65388032 415.93960716 301.51464844 410.58203125 C300.52258093 409.54582921 299.53601274 408.50432733 298.55566406 407.45703125 C276.48233452 383.88386669 248.62747567 369.78444963 217 364 C218.06368543 359.20356661 219.13371879 354.4088364 220.21875 349.6171875 C223.77729089 333.76002222 226.25949981 318.2729432 227 302 C227.04253906 301.07574219 227.08507812 300.15148437 227.12890625 299.19921875 C227.79353713 268.58188969 220.98517791 236.97797161 206.50390625 209.95703125 C205 207 205 207 205 205 C203.95102539 204.6119519 203.95102539 204.6119519 202.88085938 204.21606445 C199.71764735 202.88081368 196.86792036 201.28048504 193.90625 199.54296875 C193.32665024 199.20378418 192.74705048 198.86459961 192.14988708 198.51513672 C190.26429548 197.40978072 188.38200326 196.29895299 186.5 195.1875 C185.18693083 194.4151196 183.87386117 193.64274005 182.56079102 192.87036133 C173.25858153 187.38681118 164.05408634 181.75775488 154.89453125 176.0390625 C150.00464804 172.9905457 145.07154923 170.01795474 140.125 167.0625 C123.5668537 157.16412196 107.11898892 147.08687527 90.69726562 136.96411133 C83.60583102 132.59524342 76.49632968 128.25742651 69.375 123.9375 C60.60155317 118.61170764 51.88598687 113.19850933 43.19091797 107.74584961 C34.74446228 102.45300115 26.26531652 97.21469777 17.7578125 92.02050781 C12.18927931 88.61322378 6.66648801 85.15240836 1.19921875 81.5859375 C0.10544922 80.87953125 -0.98832031 80.173125 -2.11523438 79.4453125 C-4.20324529 78.09327123 -6.28190735 76.72665039 -8.34960938 75.34375 C-9.28224609 74.74304688 -10.21488281 74.14234375 -11.17578125 73.5234375 C-11.98958252 72.98638184 -12.80338379 72.44932617 -13.6418457 71.89599609 C-16.02382889 70.72597531 -16.02382889 70.72597531 -18.65844727 71.72680664 C-21.38498434 73.20933097 -23.37274394 74.92699969 -25.625 77.0625 C-34.02586232 84.84015295 -43.04731401 91.87280747 -52 99 C-52.60714844 98.49210937 -53.21429688 97.98421875 -53.83984375 97.4609375 C-54.55269531 96.97882813 -55.26554687 96.49671875 -56 96 C-59.58635311 96.87472027 -61.50172394 98.38275842 -64 101 C-64.66 101 -65.32 101 -66 101 C-66.81520635 98.27161565 -67.62724843 95.54235583 -68.4375 92.8125 C-68.66759766 92.04357422 -68.89769531 91.27464844 -69.13476562 90.48242188 C-72.7244278 78.36080901 -72.7244278 78.36080901 -72 72 C-70.16896559 69.15925642 -67.81756731 66.93216785 -65.390625 64.59594727 C-64.68836792 63.892668 -63.98611084 63.18938873 -63.26257324 62.46479797 C-60.94125703 60.14835183 -58.59615143 57.85767256 -56.25 55.56640625 C-54.63422103 53.96368522 -53.01998244 52.35940987 -51.40722656 50.75364685 C-47.16126719 46.53439616 -42.89470756 42.33658836 -38.62353516 38.1428833 C-34.26765116 33.8586448 -29.93155111 29.55448603 -25.59375 25.25195312 C-17.08176035 16.81500513 -8.54787801 8.40057484 0 0 Z M336 259 C338.49659145 264.21900525 341.15184462 269.30459136 344.06274414 274.3059082 C358.27605435 298.8729994 367.33260165 325.49279374 374 353 C374.33 353 374.66 353 375 353 C377.93207863 329.22026586 377.93207863 329.22026586 380.25 305.375 C380.32976074 304.43076172 380.40952148 303.48652344 380.49169922 302.51367188 C380.62787803 300.78894989 380.74479944 299.06254441 380.83789062 297.33496094 C381 295 381 295 381.39648438 292.82910156 C381.81757819 290.49128667 381.81757819 290.49128667 381 287 C378.03496745 284.07105304 374.57881683 282.10156566 371 280 C369.02837232 278.751182 367.05834598 277.49983259 365.08984375 276.24609375 C363.04079218 274.97377264 360.98999257 273.70426263 358.9375 272.4375 C356.88328485 271.16670485 354.8298865 269.89458833 352.77734375 268.62109375 C351.80265137 268.0163623 350.82795898 267.41163086 349.82373047 266.78857422 C346.40647951 264.62405921 343.06533402 262.3600784 339.74438477 260.05102539 C338.05391171 258.82797283 338.05391171 258.82797283 336 259 Z M220 811 C221 813 221 813 221 813 Z M218 814 C213.71 818.29 209.42 822.58 205 827 C208.2294476 827.33271798 208.2294476 827.33271798 210.69921875 824.59375 C211.70302243 823.5700032 212.69885649 822.5383946 213.6875 821.5 C214.19861328 820.97535156 214.70972656 820.45070313 215.23632812 819.91015625 C216.49772708 818.61339096 217.74977212 817.30753883 219 816 C218.67 815.34 218.34 814.68 218 814 Z " fill="#00B800" transform="translate(563,46)"/>
<path d="M0 0 C6.39009376 2.59737988 12.45346825 5.74191258 18.5625 8.9375 C19.66440674 9.51234131 20.76631348 10.08718262 21.90161133 10.67944336 C32.67495533 16.31923755 43.34565523 22.1394472 54 28 C67.88465107 35.71938272 67.88465107 35.71938272 82 43 C88.42988484 46.15082676 94.68355324 49.61336665 100.9609375 53.0546875 C108.2887994 57.0712963 115.63877287 61.04490092 123 65 C139.62471687 73.94292584 156.1976398 82.95084364 172.60620117 92.28540039 C179.27352234 96.0633414 186.01214289 99.6703313 192.81298828 103.20068359 C199.95878436 106.93093531 206.95473176 110.90780281 213.95654297 114.90014648 C221.2877418 119.06640128 228.68866706 123.0873982 236.125 127.0625 C257.1629731 138.33673577 277.78026995 149.80013501 296.45117188 164.75976562 C297.92304408 165.93837704 299.40654291 167.10242552 300.890625 168.265625 C308.62649845 174.54342806 315.69259148 181.48126029 322.75 188.5 C323.23982361 188.98455658 323.72964722 189.46911316 324.23431396 189.96835327 C333.19823827 198.85771906 341.23818978 208.32723653 348.625 218.5625 C349.32508179 219.52905518 349.32508179 219.52905518 350.03930664 220.51513672 C350.95657454 221.78358719 351.87242325 223.05306556 352.78662109 224.32373047 C353.78763621 225.70662178 354.80738144 227.07593475 355.83203125 228.44140625 C379.66808353 260.86075717 394.12363873 301.47704844 400 341 C400.15098145 342.0017627 400.30196289 343.00352539 400.45751953 344.03564453 C406.80232504 387.83328258 402.85914294 432.31620039 389.17382812 474.37841797 C388.04534161 477.86010868 386.93692453 481.34755553 385.83251953 484.83692932 C366.44790374 546.01435208 341.05853503 605.44647094 307 660 C306.50016602 660.80469727 306.00033203 661.60939453 305.48535156 662.43847656 C290.50148988 686.52477292 274.34161317 709.55089399 257 732 C256.47486816 732.68255859 255.94973633 733.36511719 255.40869141 734.06835938 C249.91429317 741.20202139 244.24580288 748.14528703 238.34765625 754.94946289 C235.24031651 758.53497191 232.22072939 762.17434913 229.25 765.875 C226.07833928 769.78518822 222.76879947 773.39049472 219.1171875 776.85546875 C217.28092006 778.71545182 215.58506543 780.61623414 213.88061523 782.59521484 C207.74041283 789.63192568 201.18479659 796.27089228 194.64038086 802.92944336 C193.00146435 804.60522611 191.37157529 806.28988423 189.75073242 807.9831543 C187.39042533 810.44694389 185.00182559 812.87991504 182.60546875 815.30859375 C181.89158493 816.06579208 181.17770111 816.82299042 180.44218445 817.60313416 C175.95894893 822.06999037 172.8199982 823.87004392 166.44474792 824.03666687 C165.63798111 824.0245668 164.83121429 824.01246674 164 824 C162.5898962 824.04757132 161.17981935 824.09595065 159.76977539 824.14526367 C158.37910821 824.15816027 156.98838119 824.1655894 155.59765625 824.16796875 C154.46241013 824.174049 154.46241013 824.174049 153.30422974 824.18025208 C150.89027524 824.18958569 148.47646987 824.1896647 146.0625 824.1875 C145.24206207 824.1882251 144.42162415 824.1889502 143.57632446 824.18969727 C131.61475467 824.18852681 119.84478073 823.81479541 108 822 C108.96486328 821.03707031 108.96486328 821.03707031 109.94921875 820.0546875 C112.35463616 817.65011618 114.75005151 815.23577286 117.14453125 812.8203125 C118.70045899 811.25514685 120.2564502 809.6900443 121.8125 808.125 C122.58142578 807.34769531 123.35035156 806.57039062 124.14257812 805.76953125 C128.38468998 801.50952019 132.71680295 797.45281706 137.27368164 793.53271484 C139.46973729 791.58294291 141.39828416 789.47494025 143.3125 787.25 C146.62377708 783.48692519 150.0550161 779.89136407 153.625 776.375 C157.33201546 772.70402496 160.87933631 768.98242033 164.265625 765.015625 C166.25912581 762.69885379 168.31554388 760.44580016 170.375 758.1875 C174.20036325 753.94423992 177.8509409 749.59140503 181.44140625 745.1484375 C183.32262409 742.82188546 185.23129752 740.52033191 187.15234375 738.2265625 C196.16694686 727.43741091 204.67257555 716.3260198 213 705 C213.84111328 703.86111328 213.84111328 703.86111328 214.69921875 702.69921875 C239.3381127 669.28162149 260.74912525 633.7594343 280 597 C280.50740723 596.03191406 281.01481445 595.06382812 281.53759766 594.06640625 C328.41219924 505.32743527 328.41219924 505.32743527 345 409 C343.30115571 405.7295499 343.30115571 405.7295499 340.75 402.8125 C340.07880127 401.98794312 340.07880127 401.98794312 339.39404297 401.14672852 C334.66651975 395.42012314 329.65388032 389.93960716 324.51464844 384.58203125 C323.52258093 383.54582921 322.53601274 382.50432733 321.55566406 381.45703125 C299.48233452 357.88386669 271.62747567 343.78444963 240 338 C241.06368543 333.20356661 242.13371879 328.4088364 243.21875 323.6171875 C246.77729089 307.76002222 249.25949981 292.2729432 250 276 C250.04253906 275.07574219 250.08507812 274.15148437 250.12890625 273.19921875 C250.79353713 242.58188969 243.98517791 210.97797161 229.50390625 183.95703125 C228 181 228 181 228 179 C227.30068359 178.74130127 226.60136719 178.48260254 225.88085938 178.21606445 C222.71764735 176.88081368 219.86792036 175.28048504 216.90625 173.54296875 C216.32665024 173.20378418 215.74705048 172.86459961 215.14988708 172.51513672 C213.26429548 171.40978072 211.38200326 170.29895299 209.5 169.1875 C208.18693083 168.4151196 206.87386117 167.64274005 205.56079102 166.87036133 C196.25858153 161.38681118 187.05408634 155.75775488 177.89453125 150.0390625 C173.00464804 146.9905457 168.07154923 144.01795474 163.125 141.0625 C146.5668537 131.16412196 130.11898892 121.08687527 113.69726562 110.96411133 C106.60583102 106.59524342 99.49632968 102.25742651 92.375 97.9375 C83.60155317 92.61170764 74.88598687 87.19850933 66.19091797 81.74584961 C57.74446228 76.45300115 49.26531652 71.21469777 40.7578125 66.02050781 C35.18927931 62.61322378 29.66648801 59.15240836 24.19921875 55.5859375 C23.10544922 54.87953125 22.01167969 54.173125 20.88476562 53.4453125 C18.79675471 52.09327123 16.71809265 50.72665039 14.65039062 49.34375 C13.71775391 48.74304688 12.78511719 48.14234375 11.82421875 47.5234375 C11.01041748 46.98638184 10.19661621 46.44932617 9.3581543 45.89599609 C6.97617111 44.72597531 6.97617111 44.72597531 4.34155273 45.72680664 C1.61501566 47.20933097 -0.37274394 48.92699969 -2.625 51.0625 C-11.02586232 58.84015295 -20.04731401 65.87280747 -29 73 C-33.20023856 69.93088493 -36.11885511 66.56461847 -39.1875 62.4375 C-39.62513672 61.86064453 -40.06277344 61.28378906 -40.51367188 60.68945312 C-46.0194652 53.40163203 -46.0194652 53.40163203 -45.8828125 50.58203125 C-44.79121707 47.38935612 -43.34141432 45.9741587 -40.875 43.6875 C-37.2862621 40.328491 -34.04546286 36.80699659 -30.83398438 33.09448242 C-27.91012475 29.75531952 -24.86079965 26.53774049 -21.8125 23.3125 C-16.40217415 17.56686537 -11.02106747 11.79651282 -5.6809082 5.9855957 C-3.81596539 3.95794196 -1.94827704 1.94827704 0 0 Z " fill="#E20612" transform="translate(540,72)"/>
<path d="M0 0 C-0.90878906 0.38929688 -1.81757813 0.77859375 -2.75390625 1.1796875 C-16.88847827 7.40307596 -28.77328411 15.37471532 -40 26 C-41.30837461 27.10905192 -42.62073354 28.21342477 -43.9375 29.3125 C-64.57960488 47.43122132 -79.77385705 70.36473772 -83 98 C-85.97465739 152.68793201 -53.74913566 203.71877357 -20 244 C-19.56880859 244.51755859 -19.13761719 245.03511719 -18.69335938 245.56835938 C-5.91860925 260.86516317 7.63277642 276.07809407 22.78125 289.0625 C24.98365461 290.98572656 27.13253658 292.96032011 29.27539062 294.94946289 C35.32235786 300.55750636 41.5580066 305.84640528 48 311 C49.11905814 311.91076019 50.23751888 312.82225476 51.35546875 313.734375 C93.92104913 348.3319856 141.69417288 376.28293644 190 402 C190.93344238 402.50096191 191.86688477 403.00192383 192.82861328 403.51806641 C246.51144644 432.30179997 302.18576874 453.82412227 363 460 C363 460.33 363 460.66 363 461 C262.44039316 473.16271703 148.86368021 421.52787327 18.625 333.3125 C12.52247399 328.4950849 6.57751774 323.49867946 0.67822266 318.43554688 C-1.08964519 316.92331776 -2.86635317 315.42196278 -4.64453125 313.921875 C-10.38688281 309.06272787 -15.98208553 304.18801219 -21.22265625 298.78125 C-23.01624 296.9837243 -24.8810743 295.3352354 -26.8125 293.6875 C-34.11042338 287.39519598 -40.89371002 280.46940705 -47.140625 273.13671875 C-48.99513103 271.00559522 -50.91265564 268.9422485 -52.84399414 266.88085938 C-58.8541105 260.44390892 -64.33298109 253.69324322 -69.68554688 246.70410156 C-70.91481405 245.11043796 -72.16752969 243.53493855 -73.421875 241.9609375 C-85.0219087 227.29030664 -95.28707261 211.54649059 -104 195 C-104.33692871 194.36852051 -104.67385742 193.73704102 -105.02099609 193.08642578 C-123.95657226 157.39562408 -136.28684762 115.58067295 -124.78125 75.55078125 C-119.85991007 59.86610866 -111.45861584 47.59964496 -100 36 C-99.43023437 35.35804688 -98.86046875 34.71609375 -98.2734375 34.0546875 C-77.16650659 10.78294316 -41.08909209 3.39314203 -11.4375 -0.3125 C-10.74124512 -0.40112305 -10.04499023 -0.48974609 -9.32763672 -0.58105469 C-5.99061857 -0.9558134 -3.1957461 -1.13030206 0 0 Z " fill="#E30613" transform="translate(227,350)"/>
<path d="M0 0 C3.47483265 0.68580214 6.23174399 2.05924831 9.33984375 3.73828125 C10.39171875 4.30474365 11.44359375 4.87120605 12.52734375 5.45483398 C13.65269531 6.06786377 14.77804688 6.68089355 15.9375 7.3125 C17.11715502 7.95196423 18.29684291 8.59136781 19.4765625 9.23071289 C29.10565141 14.46217782 38.64192708 19.84859141 48.12646484 25.33740234 C51.44274793 27.25616936 54.76225214 29.1693227 58.08203125 31.08203125 C64.39031547 34.71738622 70.69589786 38.35739669 77 42 C76.47470703 41.60603027 75.94941406 41.21206055 75.40820312 40.80615234 C70.60546875 37.20410156 65.80273438 33.60205078 61 30 C61.66 29.67 62.32 29.34 63 29 C65.51020723 30.03904002 67.89617422 31.14700746 70.32275391 32.35888672 C71.08636608 32.73257008 71.84997826 33.10625343 72.63673019 33.49126053 C75.21231237 34.75449392 77.78190049 36.02945917 80.3515625 37.3046875 C82.18737327 38.20884916 84.02344929 39.11247244 85.85977173 40.01559448 C91.91305008 42.99726222 97.95705349 45.99746062 104 49 C105.03303757 49.51287064 106.06607513 50.02574127 107.13041687 50.55415344 C122.43171321 58.15135979 137.71422643 65.78587261 152.99108887 73.43206787 C157.54852064 75.71209899 162.10744901 77.98912921 166.66635704 80.26620674 C171.13539068 82.49890388 175.60345742 84.73353049 180.0712471 86.96871567 C182.1653084 88.01607436 184.25965462 89.06286362 186.35432053 90.1090126 C198.66159081 96.25719716 210.89081659 102.52923442 223.0476265 108.9696312 C227.2090507 111.16583068 231.39985061 113.30418951 235.59375 115.4375 C236.47623413 115.88794678 237.35871826 116.33839355 238.26794434 116.80249023 C241.01138697 118.20279287 243.75558037 119.60161325 246.5 121 C258.62652832 127.17892992 270.72325713 133.40536137 282.75732422 139.76269531 C287.30637135 142.1651786 291.87345044 144.53196048 296.4440918 146.89306641 C306.67445515 152.1784784 316.83429663 157.5757143 326.92114258 163.13037109 C328.56587981 164.03565907 330.21352676 164.93569147 331.86474609 165.82910156 C333.69837236 166.83459797 335.50289708 167.89284537 337.30078125 168.9609375 C339.8988073 170.23684579 339.8988073 170.23684579 342.34375 169.53515625 C346.17256822 167.32232455 349.84054299 164.91869651 353.5 162.4375 C354.30099121 161.90898438 355.10198242 161.38046875 355.92724609 160.8359375 C360.1330921 158.04157914 364.13940059 155.20887586 367.88720703 151.81860352 C371.84925476 148.81227874 374.47106172 146.83222787 379.57763672 147.39257812 C380.86851979 147.74808356 382.15257862 148.12906085 383.4296875 148.53125 C384.85202409 148.9330372 386.27438807 149.33472745 387.69677734 149.73632812 C388.41420105 149.94845947 389.13162476 150.16059082 389.87078857 150.37915039 C393.13467787 151.33085691 396.42410603 152.16061102 399.71875 153 C400.98904053 153.32798584 402.25933105 153.65597168 403.56811523 153.99389648 C421.22172083 158.52281166 438.85114556 162.09833977 457 164 C455.62401013 168.12796961 452.77774861 169.44564997 449.28125 171.71875 C448.59626938 172.17310425 447.91128876 172.6274585 447.20555115 173.09558105 C444.97557867 174.57179348 442.73811458 176.03616737 440.5 177.5 C438.96520748 178.51115934 437.43078375 179.52287869 435.89672852 180.53515625 C432.90844674 182.50488107 429.9169851 184.46961574 426.92236328 186.4296875 C423.89723386 188.40993516 420.88087646 190.40272492 417.87109375 192.40625 C400.16924429 204.12805835 381.55313827 214.47073414 362.83984375 224.47509766 C359.78056526 226.11782921 356.73451797 227.78386903 353.6875 229.44921875 C351.60473285 230.571364 349.52141352 231.69248509 347.4375 232.8125 C345.98234985 233.61421631 345.98234985 233.61421631 344.49780273 234.43212891 C343.13570679 235.15601807 343.13570679 235.15601807 341.74609375 235.89453125 C340.94872803 236.32612549 340.1513623 236.75771973 339.32983398 237.20239258 C336.42731788 238.19605496 334.90210987 237.92548403 332 237 C330.17333984 235.99121094 330.17333984 235.99121094 328.4609375 234.734375 C327.80851074 234.26354492 327.15608398 233.79271484 326.48388672 233.30761719 C325.7879541 232.79360352 325.09202148 232.27958984 324.375 231.75 C322.84472227 230.64448625 321.31343621 229.54036718 319.78125 228.4375 C318.99105469 227.86644531 318.20085937 227.29539062 317.38671875 226.70703125 C313.59159598 223.99267994 309.73432096 221.37187884 305.875 218.75 C295.84915227 211.91719598 285.89270425 204.98630262 275.93945312 198.04833984 C271.12844225 194.69581649 266.31405916 191.3481439 261.5 188 C259.58722966 186.6692851 257.67446925 185.33855592 255.76171875 184.0078125 C251.88987992 181.31430219 248.01742195 178.62168513 244.14453125 175.9296875 C226.74659143 163.83511167 209.3784546 151.69954972 192.07666016 139.46777344 C189.26260166 137.47881039 186.44727504 135.49164676 183.63183594 133.50463867 C182.21178781 132.50237612 180.7918657 131.49993499 179.37207031 130.49731445 C175.84522401 128.00689439 172.31683792 125.51871538 168.78515625 123.03515625 C161.52765245 117.92768165 154.3040344 112.77978063 147.125 107.5625 C140.94831749 103.07463365 134.69645134 98.71874193 128.375 94.4375 C121.74768996 89.94529776 115.28735436 85.29014257 108.91308594 80.44677734 C103.52485646 76.36197856 98.02919196 72.44945031 92.4934082 68.56787109 C85.02917873 63.33127547 77.64491673 57.98667804 70.26171875 52.63671875 C68.02060267 51.01490936 65.77648685 49.39734868 63.53125 47.78125 C53.44408523 40.51813836 43.41846755 33.17527381 33.421875 25.78808594 C30.12177657 23.35160198 26.81710649 20.92135255 23.51269531 18.49072266 C20.38204512 16.18671884 17.25393112 13.87929713 14.12695312 11.5703125 C12.75381376 10.55653468 11.38015309 9.54346241 10.00585938 8.53125 C8.2722688 7.25329422 6.54181255 5.97123575 4.8125 4.6875 C3.87019531 3.99011719 2.92789063 3.29273438 1.95703125 2.57421875 C1.31121094 2.05472656 0.66539062 1.53523437 0 1 C0 0.67 0 0.34 0 0 Z " fill="#00B800" transform="translate(202,803)"/>
<path d="M0 0 C4.31986933 1.35087139 8.30963749 3.00675753 12.37890625 4.98461914 C13.00163925 5.28644796 13.62437225 5.58827679 14.26597595 5.89925194 C16.36689291 6.91951475 18.46479811 7.9458008 20.5625 8.97265625 C21.68035889 9.51775691 21.68035889 9.51775691 22.82080078 10.07386971 C44.29890782 20.5472873 65.66183138 31.25517587 87.03027344 41.94995117 C92.87652394 44.87595079 98.72459317 47.79829478 104.57318115 50.7196188 C109.16060856 53.0115123 113.74706854 55.30533647 118.33325195 57.59971809 C120.48871699 58.67777908 122.64446794 59.75526866 124.80053711 60.8321209 C137.29588852 67.07443287 149.71628022 73.43432512 162.05807495 79.97485542 C166.21579816 82.16972252 170.403324 84.30595632 174.59375 86.4375 C175.47623413 86.88794678 176.35871826 87.33839355 177.26794434 87.80249023 C180.01138697 89.20279287 182.75558037 90.60161325 185.5 92 C197.62652832 98.17892992 209.72325713 104.40536137 221.75732422 110.76269531 C226.30637135 113.1651786 230.87345044 115.53196048 235.4440918 117.89306641 C245.67445515 123.1784784 255.83429663 128.5757143 265.92114258 134.13037109 C267.56587981 135.03565907 269.21352676 135.93569147 270.86474609 136.82910156 C272.69837236 137.83459797 274.50289708 138.89284537 276.30078125 139.9609375 C278.8988073 141.23684579 278.8988073 141.23684579 281.34375 140.53515625 C285.17256822 138.32232455 288.84054299 135.91869651 292.5 133.4375 C293.30099121 132.90898438 294.10198242 132.38046875 294.92724609 131.8359375 C299.1330921 129.04157914 303.13940059 126.20887586 306.88720703 122.81860352 C313.46078153 117.830703 313.46078153 117.830703 318.52929688 118.38818359 C319.78806641 118.76281738 321.04683594 119.13745117 322.34375 119.5234375 C323.76221665 119.92591968 325.18101058 120.32724988 326.60009766 120.72753906 C327.32594055 120.94043579 328.05178345 121.15333252 328.79962158 121.37268066 C332.33754015 122.3813275 335.91392478 123.21855959 339.4921875 124.0703125 C340.88958978 124.41166981 342.28672655 124.75411591 343.68359375 125.09765625 C345.80690531 125.61916265 347.93063848 126.13841452 350.05615234 126.65087891 C352.16149694 127.15913075 354.26447362 127.6763 356.3671875 128.1953125 C357.59550293 128.49453613 358.82381836 128.79375977 360.08935547 129.10205078 C363 130 363 130 365 132 C347.00896548 144.122991 328.84736083 155.7329504 309.92138672 166.34814453 C306.6859244 168.17758946 303.46990669 170.03891371 300.25390625 171.90234375 C297.98197295 173.20608145 295.70984073 174.50947256 293.4375 175.8125 C292.36032715 176.4420459 291.2831543 177.0715918 290.17333984 177.72021484 C289.16609863 178.29336426 288.15885742 178.86651367 287.12109375 179.45703125 C286.2283374 179.97241455 285.33558105 180.48779785 284.41577148 181.01879883 C281.63247335 182.14927636 280.73362879 182.13396756 278 181 C276.58412086 180.27075808 275.19580518 179.48663661 273.83203125 178.6640625 C273.03015381 178.18259766 272.22827637 177.70113281 271.40209961 177.20507812 C270.54753174 176.68365234 269.69296387 176.16222656 268.8125 175.625 C267.92119385 175.08552734 267.0298877 174.54605469 266.11157227 173.99023438 C259.07646858 169.70946672 252.15084308 165.27422942 245.2578125 160.76953125 C240.80502132 157.86253302 236.31248735 155.02072185 231.8125 152.1875 C222.11732371 146.07981719 212.44958082 139.92963563 202.78515625 133.7734375 C200.05542684 132.03529282 197.32476815 130.29861894 194.59375 128.5625 C174.76043052 115.953368 154.95479581 103.30418647 135.26416016 90.47314453 C131.74367091 88.18258683 128.2153814 85.90414799 124.6875 83.625 C110.62478031 74.52885633 96.59741618 65.38068802 82.62109375 56.15234375 C81.22837753 55.23288216 81.22837753 55.23288216 79.80752563 54.29484558 C71.60598413 48.88016557 71.60598413 48.88016557 68.19799805 46.62936401 C57.24613287 39.3982572 46.27591855 32.20762976 35.1875 25.1875 C27.00649254 19.99959507 18.9642571 14.6389057 11 9.125 C9.50956177 8.09669067 9.50956177 8.09669067 7.98901367 7.04760742 C7.08513916 6.4157251 6.18126465 5.78384277 5.25 5.1328125 C4.45078125 4.57480957 3.6515625 4.01680664 2.828125 3.44189453 C1 2 1 2 0 0 Z " fill="#E10712" transform="translate(263,832)"/>
<path d="M0 0 C6.6 0 13.2 0 20 0 C24.49988924 10.12475079 24.49988924 10.12475079 26.28662109 15.25976562 C26.88777237 16.9783075 26.88777237 16.9783075 27.50106812 18.73156738 C27.92095001 19.94421265 28.34083191 21.15685791 28.7734375 22.40625 C29.22382898 23.69799561 29.67457082 24.98961911 30.12564087 26.28112793 C31.30702557 29.6665229 32.48390453 33.05346638 33.659729 36.4407959 C34.83830549 39.83381692 36.02077826 43.22547882 37.203125 46.6171875 C38.54379853 50.46327144 39.88388474 54.30955094 41.22103882 58.15686035 C44.45136644 67.44865747 47.72582704 76.72317662 51 86 C51 57.62 51 29.24 51 0 C58.59 0 66.18 0 74 0 C74 52.47 74 104.94 74 159 C67.73 159 61.46 159 55 159 C54.49251221 157.52764893 53.98502441 156.05529785 53.4621582 154.53833008 C43.39234971 125.32906212 33.29461194 96.13096184 23 67 C23.03029297 67.72622559 23.06058594 68.45245117 23.09179688 69.20068359 C24.27987953 99.12665791 24.09160297 129.05600756 24 159 C16.08 159 8.16 159 0 159 C0 106.53 0 54.06 0 0 Z M52 89 C53 91 53 91 53 91 Z " fill="#006633" transform="translate(672,367)"/>
<path d="M0 0 C6.6 0 13.2 0 20 0 C30.51863164 28.93552909 40.77343913 57.95968974 51 87 C51 58.29 51 29.58 51 0 C58.26 0 65.52 0 73 0 C73 52.47 73 104.94 73 159 C67.06 159 61.12 159 55 159 C49.12541232 143.24800214 43.55097185 127.39693559 38.0177002 111.52282715 C36.14792365 106.15947815 34.27565111 100.7970007 32.40276146 95.43473816 C31.75961274 93.59235676 31.11749765 91.74961463 30.47541809 89.90686035 C30.07787827 88.76777222 29.68033844 87.62868408 29.27075195 86.45507812 C28.92768509 85.47091919 28.58461823 84.48676025 28.2311554 83.47277832 C26.51711228 78.63789575 24.75304642 73.82087767 23 69 C23 98.7 23 128.4 23 159 C15.41 159 7.82 159 0 159 C0 106.53 0 54.06 0 0 Z " fill="#006633" transform="translate(402,367)"/>
<path d="M0 0 C8.39632566 6.3017199 11.04401875 16.67305483 12.67987823 26.58292389 C13.65630775 34.21768509 13.38313828 41.99864012 13.35546875 49.6796875 C13.35749562 51.6840119 13.36041212 53.68833557 13.36416626 55.69265747 C13.36856284 59.87313934 13.36224653 64.05342755 13.34814453 68.23388672 C13.33107674 73.54786086 13.34089587 78.86137945 13.35886192 84.17533684 C13.36979136 88.30904465 13.36621143 92.44264753 13.35847855 96.5763588 C13.35650058 98.53364239 13.35884953 100.49093603 13.36591721 102.44820786 C13.46425239 137.32937196 13.46425239 137.32937196 3.1015625 148.8046875 C-5.25601248 156.5964692 -14.33008795 158.15126005 -25.52734375 158.0234375 C-34.13528624 157.35393086 -42.1822668 154.9673411 -48.3984375 148.77734375 C-59.30213276 135.33549614 -58.49802713 117.39665323 -58.44140625 101.05859375 C-58.4434324 98.97982176 -58.44634832 96.90105047 -58.45010376 94.82228088 C-58.45450067 90.48797772 -58.44818087 86.15386135 -58.43408203 81.81958008 C-58.41698115 76.29681009 -58.4268541 70.77447734 -58.44479942 65.25172329 C-58.45569962 60.96630121 -58.45216264 56.68098083 -58.44441605 52.3955555 C-58.4424318 50.36043304 -58.44481 48.32530098 -58.45185471 46.29018974 C-58.53514375 15.48021418 -58.53514375 15.48021418 -48.328125 3.78515625 C-35.80006234 -8.33299025 -14.51686685 -8.88221298 0 0 Z M-31.04296875 21.75 C-32.98714392 27.70257061 -33.33345519 33.66206953 -33.30175781 39.87475586 C-33.30526245 40.73782852 -33.30876709 41.60090118 -33.31237793 42.49012756 C-33.32110915 45.3151172 -33.3153762 48.139852 -33.30859375 50.96484375 C-33.309943 52.94584704 -33.31188569 54.92685001 -33.31439209 56.90785217 C-33.31733181 61.04919605 -33.31308332 65.19045334 -33.30371094 69.33178711 C-33.29232464 74.61838405 -33.29887806 79.90477768 -33.31085587 85.19136715 C-33.31811201 89.27935799 -33.31576921 93.36730132 -33.31060028 97.45529366 C-33.30927377 99.4035806 -33.31087619 101.35187197 -33.31555939 103.30015373 C-34.08678544 119.3142268 -34.08678544 119.3142268 -28.85546875 133.875 C-25.21232383 136.30376328 -23.34179273 136.51764714 -19.04296875 135.75 C-15.89169246 133.78920587 -14.43118203 132.1076758 -13.40118408 128.50552368 C-11.66672742 118.65019351 -11.75232679 108.8698605 -11.77734375 98.8984375 C-11.77599344 96.98898265 -11.77404988 95.07952814 -11.77154541 93.17007446 C-11.76861278 89.18789362 -11.77283245 85.20580308 -11.78222656 81.22363281 C-11.79363553 76.142263 -11.78704058 71.06110419 -11.77508163 65.97974205 C-11.76782584 62.04359369 -11.77016773 58.10749467 -11.77533722 54.17134476 C-11.77666263 52.29841715 -11.77506526 50.42548493 -11.77037811 48.55256271 C-11.32584597 33.14309007 -11.32584597 33.14309007 -15.66796875 18.625 C-18.45877744 16.42172998 -20.53070946 16.01971022 -24.078125 16.27734375 C-27.64465679 17.13529673 -28.98708715 18.78711181 -31.04296875 21.75 Z " fill="#006633" transform="translate(368.04296875,370.25)"/>
<path d="M0 0 C10.89 0 21.78 0 33 0 C39.2265535 39.65563859 45.3949354 79.31878117 51.34922791 119.0163269 C51.75083659 121.69307595 52.15301653 124.36973868 52.55529785 127.04638672 C53.18733726 131.25323631 53.81762437 135.46034457 54.44636536 139.66768837 C54.67812651 141.21758922 54.91032735 142.7674244 55.14299011 144.31719017 C55.45971669 146.42829001 55.77457355 148.53965983 56.08886719 150.65112305 C56.26585144 151.83562546 56.44283569 153.02012787 56.62518311 154.24052429 C57 157 57 157 57 159 C49.08 159 41.16 159 33 159 C32.2575 154.2975 32.2575 154.2975 31.5 149.5 C31.34337891 148.52869141 31.18675781 147.55738281 31.02539062 146.55664062 C30.90357422 145.76451172 30.78175781 144.97238281 30.65625 144.15625 C30.53056641 143.36025391 30.40488281 142.56425781 30.27539062 141.74414062 C29.91765696 138.17948952 30 134.58255647 30 131 C21.75 131 13.5 131 5 131 C4.01 140.24 3.02 149.48 2 159 C-6.25 159 -14.5 159 -23 159 C-20.83304594 141.22786499 -18.42534385 123.49871388 -15.892097 105.77583933 C-15.47619084 102.86461802 -15.06151177 99.95322237 -14.6467787 97.04183376 C-13.67010952 90.18613934 -12.69122481 83.33076386 -11.7109375 76.47558594 C-10.70147354 69.41604371 -9.6962032 62.35591268 -8.69282758 55.29550278 C-7.82562571 49.19446722 -6.95573948 43.09381848 -6.08370364 36.99347198 C-5.56513002 33.36552265 -5.04761175 29.73743067 -4.53275681 26.10895157 C-3.9624377 22.09046009 -3.38653303 18.07278886 -2.81005859 14.05517578 C-2.64070297 12.85642319 -2.47134735 11.65767059 -2.29685974 10.42259216 C-2.13995163 9.33544418 -1.98304352 8.2482962 -1.82138062 7.12820435 C-1.68608633 6.18043184 -1.55079205 5.23265934 -1.41139793 4.25616646 C-1 2 -1 2 0 0 Z M16 36 C13.03 60.42 10.06 84.84 7 110 C13.6 110 20.2 110 27 110 C26.06072545 102.67543147 25.11861416 95.3512349 24.17407227 88.02734375 C23.85431558 85.54501789 23.53528323 83.0625986 23.21704102 80.58007812 C21.30806685 65.69308589 19.30937919 50.83056122 17 36 C16.67 36 16.34 36 16 36 Z " fill="#006633" transform="translate(600,367)"/>
<path d="M0 0 C7.63729042 5.46835252 11.26128618 13.19928602 13.55078125 22.15429688 C14.14148756 25.89629291 14.12324931 29.58652007 14.09765625 33.36328125 C14.0962413 34.15526413 14.09482635 34.94724701 14.09336853 35.76322937 C14.08779457 38.27969219 14.07524693 40.79606431 14.0625 43.3125 C14.05748163 45.02408725 14.05291931 46.73567591 14.04882812 48.44726562 C14.03868681 52.63157302 14.01910646 56.81568562 14 61 C6.08 61 -1.84 61 -10 61 C-10.03738281 58.79441406 -10.07476563 56.58882813 -10.11328125 54.31640625 C-10.15965239 52.15168011 -10.21082874 49.98711632 -10.26245117 47.82250977 C-10.29545795 46.33205243 -10.32356327 44.84147738 -10.34643555 43.35083008 C-10.53207475 31.38405936 -10.53207475 31.38405936 -14 20 C-17.04983996 18.47508002 -19.6423369 18.76437452 -23 19 C-25.99548318 20.96255795 -26.93540932 23.65414359 -28 27 C-28.91393532 32.24963914 -29.14838237 37.30018959 -29.14526367 42.60644531 C-29.14862228 43.43835892 -29.1519809 44.27027252 -29.15544128 45.12739563 C-29.16489229 47.86098754 -29.16689155 50.5945178 -29.16796875 53.328125 C-29.17118575 55.24233016 -29.17455016 57.15653509 -29.17805481 59.07073975 C-29.18403172 63.07857838 -29.18589622 67.0863955 -29.18530273 71.09423828 C-29.18520128 76.20590489 -29.19884293 81.31743208 -29.21607494 86.4290657 C-29.22724642 90.38241192 -29.22922035 94.33572501 -29.22869301 98.28908539 C-29.22986578 100.17235544 -29.23424765 102.05562656 -29.24202538 103.93888092 C-30.03299571 119.94726591 -30.03299571 119.94726591 -25.25 134.6875 C-22.24343328 136.44133059 -20.4290682 136.50007245 -17 136 C-14.61548201 135.12894624 -14.61548201 135.12894624 -13 133 C-11.32483165 127.43774654 -10.67821051 122.34826683 -10.5859375 116.5625 C-10.56657135 115.79695801 -10.5472052 115.03141602 -10.5272522 114.24267578 C-10.46809054 111.82855925 -10.42132856 109.41439335 -10.375 107 C-10.33676163 105.35024111 -10.29770661 103.70050093 -10.2578125 102.05078125 C-10.16092432 98.03395876 -10.08085676 94.01730417 -10 90 C-1.75 90 6.5 90 15 90 C15.06975667 94.42567288 15.12920639 98.84935682 15.16479492 103.27514648 C15.17966572 104.77325992 15.19996866 106.2713316 15.22631836 107.76928711 C15.47090613 122.05609014 15.25271515 138.84382972 5.14453125 150.05859375 C-3.07002365 157.7011487 -11.65460111 159.31817103 -22.640625 159.21875 C-32.014047 158.60838764 -39.15582558 155.17242006 -45.625 148.375 C-56.36155853 135.55275239 -55.31367029 118.25406654 -55.30078125 102.51171875 C-55.30467656 100.5207358 -55.30901292 98.52975367 -55.31376648 96.53877258 C-55.3211973 92.37909239 -55.3209605 88.21949713 -55.31567383 84.05981445 C-55.30988664 78.76463529 -55.3268076 73.46980676 -55.3500185 68.17468548 C-55.36484723 64.06594354 -55.36561513 59.95728425 -55.36250877 55.84852028 C-55.36301751 53.89795043 -55.36816975 51.9473754 -55.37832069 49.99683189 C-55.45181702 33.90024243 -55.05741153 17.25933864 -44.44140625 4.0625 C-33.46929098 -6.46231081 -12.87493684 -7.49087234 0 0 Z " fill="#006633" transform="translate(551,369)"/>
<path d="M0 0 C46 0 46 0 54.625 7.1875 C61.12920155 14.88984394 63.31072422 23.94617438 63.2746582 33.89379883 C63.27976913 34.63807632 63.28488007 35.38235382 63.29014587 36.14918518 C63.30393166 38.585218 63.3030932 41.0209643 63.30078125 43.45703125 C63.30467479 45.16802574 63.3090108 46.87901928 63.31376648 48.5900116 C63.32120546 52.16819396 63.32095473 55.74627761 63.31567383 59.32446289 C63.30988832 63.88354708 63.32679924 68.44222381 63.3500185 73.00124073 C63.36483567 76.53340471 63.36561664 80.06547241 63.36250877 83.59766197 C63.36301818 85.277186 63.36818349 86.95671597 63.37832069 88.63620949 C63.44198969 100.66062752 63.4003826 113.4491774 55 123 C39.81626232 135.53057931 18.0602908 130 0 130 C0 87.1 0 44.2 0 0 Z M20 13 C20 47.32 20 81.64 20 117 C32.50212931 117.87919563 32.50212931 117.87919563 37.6875 115.5 C42.59546057 110.19409668 43.44856981 103.86388221 43.40405273 96.875 C43.41434761 95.72209473 43.41434761 95.72209473 43.42485046 94.54589844 C43.44300312 92.03040573 43.43929823 89.5155435 43.43359375 87 C43.43816059 85.23697713 43.44346765 83.47395604 43.44947815 81.7109375 C43.4583862 78.02596783 43.45601191 74.34121516 43.44604492 70.65625 C43.43454888 65.94877338 43.45478802 61.2420462 43.48396206 56.53466797 C43.5023609 52.89708755 43.50202444 49.25968561 43.49632454 45.62207031 C43.49617182 43.88703356 43.50217471 42.15198434 43.51461601 40.41699219 C43.5295974 37.98585757 43.51879863 35.55609354 43.50170898 33.125 C43.51137695 32.41827148 43.52104492 31.71154297 43.53100586 30.98339844 C43.45163154 25.55489373 41.86980014 21.5079466 39 17 C33.51946126 11.6907281 27.597449 13 20 13 Z " fill="#E30613" transform="translate(316,546)"/>
<path d="M0 0 C6.64615259 5.43525936 8.80049159 12.78392559 10 21 C10.07651913 22.94407952 10.10811623 24.89038078 10.09765625 26.8359375 C10.09443359 27.89941406 10.09121094 28.96289062 10.08789062 30.05859375 C10.07532227 31.70021484 10.07532227 31.70021484 10.0625 33.375 C10.05798828 34.49261719 10.05347656 35.61023438 10.04882812 36.76171875 C10.03709258 39.50783566 10.01915866 42.25392485 10 45 C3.73 45 -2.54 45 -9 45 C-9.05607422 42.41478516 -9.05607422 42.41478516 -9.11328125 39.77734375 C-9.17895937 37.49737474 -9.24540607 35.21742778 -9.3125 32.9375 C-9.34633789 31.2369043 -9.34633789 31.2369043 -9.38085938 29.50195312 C-9.57901196 23.32319537 -9.85083996 18.39321707 -13 13 C-17.04081202 10.30612532 -20.25589306 10.34132786 -25 11 C-28.67776098 12.95625584 -29.72719412 14.22639038 -31.11174011 18.15261841 C-32.03821958 22.16554313 -32.28895719 25.90487449 -32.2746582 29.99560547 C-32.27976913 30.76245667 -32.28488007 31.52930786 -32.29014587 32.31939697 C-32.30395991 34.83540823 -32.30309122 37.351143 -32.30078125 39.8671875 C-32.30467287 41.62924296 -32.30900849 43.39129749 -32.31376648 45.15335083 C-32.32121124 48.84005784 -32.32095023 52.52666905 -32.31567383 56.21337891 C-32.30988357 60.91953517 -32.32680791 65.62529731 -32.3500185 70.33138847 C-32.36480695 73.96898664 -32.36562057 77.60649102 -32.36250877 81.24411392 C-32.36301949 82.97832138 -32.36820989 84.71253443 -32.37832069 86.44671249 C-32.54281955 99.0355719 -32.54281955 99.0355719 -29 111 C-26.60738669 113.39261331 -25.16639278 113.93740289 -21.81640625 114.1171875 C-17.93771705 113.92611907 -15.63914946 113.50804188 -12.5625 111.0625 C-8.31396316 102.7353678 -8.60998343 93.0197718 -8.375 83.875 C-8.33632813 82.63234375 -8.29765625 81.3896875 -8.2578125 80.109375 C-8.16438982 77.07313775 -8.08114657 74.03659014 -8 71 C-12.29 71 -16.58 71 -21 71 C-21 67.04 -21 63.08 -21 59 C-10.77 59 -0.54 59 10 59 C10 81.44 10 103.88 10 127 C6.37 127 2.74 127 -1 127 C-1.495 123.535 -1.495 123.535 -2 120 C-2.53109375 120.40992188 -3.0621875 120.81984375 -3.609375 121.2421875 C-4.31578125 121.78101563 -5.0221875 122.31984375 -5.75 122.875 C-6.44609375 123.40867187 -7.1421875 123.94234375 -7.859375 124.4921875 C-14.73946263 129.33838061 -22.43490976 129.57789231 -30.625 128.4375 C-37.77166365 126.89586256 -43.60560984 123.44768317 -47.875 117.4375 C-53.60403103 106.57853206 -53.45061332 94.46243348 -53.3984375 82.52734375 C-53.40046492 80.87073133 -53.40338187 79.21411979 -53.40713501 77.55751038 C-53.41152578 74.10750726 -53.40523243 70.65773918 -53.39111328 67.20776367 C-53.37400974 62.8181614 -53.38389063 58.42910919 -53.40183067 54.03952694 C-53.41274554 50.62569643 -53.40918738 47.21199329 -53.4014473 43.79815865 C-53.3994672 42.18087255 -53.40182613 40.56357432 -53.40888596 38.94630241 C-53.45026845 26.80887724 -53.36082726 13.67868376 -45 4 C-34.04672283 -6.33066984 -12.96689992 -7.92032265 0 0 Z " fill="#E30613" transform="translate(501,549)"/>
<path d="M0 0 C7.92 0 15.84 0 24 0 C27.24559401 15.76798926 30.48861679 31.53649997 33.72697353 47.30597687 C35.23077961 54.62848319 36.73573089 61.95075062 38.2434082 69.27246094 C39.55794835 75.65625705 40.87030927 82.04049665 42.18008763 88.42527151 C42.87326661 91.80392813 43.56751285 95.18235727 44.26437187 98.56025696 C45.04347108 102.33700795 45.81770329 106.11474779 46.59155273 109.89257812 C46.82172592 111.00460602 47.05189911 112.11663391 47.28904724 113.26235962 C47.60664001 114.81864578 47.60664001 114.81864578 47.9306488 116.40637207 C48.11408561 117.29866768 48.29752241 118.19096329 48.48651791 119.11029816 C49.12768474 122.71856613 49.54543863 126.36350902 50 130 C43.73 130 37.46 130 31 130 C30.32997361 126.56312356 29.66384158 123.12557144 29 119.6875 C28.80921875 118.71103516 28.6184375 117.73457031 28.421875 116.72851562 C28.24140625 115.79072266 28.0609375 114.85292969 27.875 113.88671875 C27.62363281 112.59060669 27.62363281 112.59060669 27.3671875 111.26831055 C27 109 27 109 27 106 C17.76 106 8.52 106 -1 106 C-1.28875 108.10375 -1.5775 110.2075 -1.875 112.375 C-2.71868682 118.30491311 -3.75735917 124.14183608 -5 130 C-11.27 130 -17.54 130 -24 130 C-22.26118145 116.66080357 -19.73815329 103.48865982 -17.24609375 90.2734375 C-16.78029303 87.79200477 -16.31472583 85.31052818 -15.84938049 82.82901001 C-14.87873558 77.65632732 -13.90618541 72.48400691 -12.93188477 67.31201172 C-11.80687798 61.33993163 -10.68483533 55.36730079 -9.56449455 49.39434373 C-8.48182068 43.62225183 -7.39771668 37.85042944 -6.31282234 32.07875443 C-5.85285883 29.63153524 -5.39315467 27.1842673 -4.93371391 24.73694992 C-4.29355655 21.328793 -3.65178854 17.92094349 -3.00952148 14.51318359 C-2.81989334 13.50227661 -2.6302652 12.49136963 -2.43489075 11.4498291 C-2.25970917 10.52217743 -2.08452759 9.59452576 -1.90403748 8.63876343 C-1.75269568 7.83470755 -1.60135389 7.03065166 -1.44542599 6.20223045 C-1.02458552 4.12155325 -0.51485717 2.05942866 0 0 Z M12 28 C10.91311712 34.06034766 9.82886348 40.12115836 8.74682617 46.18237305 C8.37999867 48.23523004 8.01250863 50.28796877 7.64428711 52.34057617 C5.27702031 65.53978411 3.04637313 78.74699039 1 92 C8.59 92 16.18 92 24 92 C23.16085152 84.41665246 23.16085152 84.41665246 21.96850586 76.92944336 C21.76837387 75.82898178 21.56824188 74.7285202 21.36204529 73.5947113 C21.04168053 71.85980186 21.04168053 71.85980186 20.71484375 70.08984375 C20.49429825 68.88179581 20.27375275 67.67374786 20.04652405 66.42909241 C19.34642434 62.59802265 18.64202861 58.7677575 17.9375 54.9375 C17.46000181 52.32882813 16.98278529 49.72010468 16.50585938 47.11132812 C15.3404987 40.74028492 14.17161666 34.36989554 13 28 C12.67 28 12.34 28 12 28 Z " fill="#E30613" transform="translate(657,546)"/>
<path d="M0 0 C20.46 0 40.92 0 62 0 C62 7.26 62 14.52 62 22 C56.06 22 50.12 22 44 22 C44 67.21 44 112.42 44 159 C35.75 159 27.5 159 19 159 C19 113.79 19 68.58 19 22 C12.73 22 6.46 22 0 22 C0 14.74 0 7.48 0 0 Z " fill="#006633" transform="translate(238,367)"/>
<path d="M0 0 C6.6 0 13.2 0 20 0 C20 38.61 20 77.22 20 117 C29.57 117 39.14 117 49 117 C49 121.29 49 125.58 49 130 C32.83 130 16.66 130 0 130 C0 87.1 0 44.2 0 0 Z " fill="#E30613" transform="translate(725,546)"/>
<path d="M0 0 C17.82 0 35.64 0 54 0 C54 4.62 54 9.24 54 14 C48.39 14 42.78 14 37 14 C37 52.28 37 90.56 37 130 C30.73 130 24.46 130 18 130 C18 91.72 18 53.44 18 14 C12.06 14 6.12 14 0 14 C0 9.38 0 4.76 0 0 Z " fill="#E30613" transform="translate(572,546)"/>
<path d="M0 0 C6.6 0 13.2 0 20 0 C20 42.9 20 85.8 20 130 C13.4 130 6.8 130 0 130 C0 87.1 0 44.2 0 0 Z " fill="#E30613" transform="translate(536,546)"/>
<path d="M0 0 C6.6 0 13.2 0 20 0 C20 42.9 20 85.8 20 130 C13.4 130 6.8 130 0 130 C0 87.1 0 44.2 0 0 Z " fill="#E30613" transform="translate(403,546)"/>
<path d="M0 0 C2.31 0 4.62 0 7 0 C13.93 17.16 20.86 34.32 28 52 C28.33 34.84 28.66 17.68 29 0 C31.64 0 34.28 0 37 0 C37 25.74 37 51.48 37 78 C34.36 78 31.72 78 29 78 C28.53625977 76.81035645 28.07251953 75.62071289 27.59472656 74.39501953 C25.85818866 69.94058307 24.12107201 65.48637249 22.38378906 61.03222656 C21.63493559 59.11203983 20.88623473 57.19179356 20.13769531 55.27148438 C19.0557497 52.49593322 17.97323775 49.72060349 16.890625 46.9453125 C16.56128967 46.1001004 16.23195435 45.25488831 15.89263916 44.38406372 C13.62619443 38.57616538 11.31561626 32.78904065 9 27 C8.67 43.83 8.34 60.66 8 78 C5.36 78 2.72 78 0 78 C0 52.26 0 26.52 0 0 Z " fill="#000000" transform="translate(706,273)"/>
<path d="M0 0 C25 0 25 0 31 3 C35.40202108 7.40202108 35.07767891 12.91612197 35.25 18.8125 C35.19762249 24.8284315 34.62741902 31.14244208 30.39453125 35.74609375 C29.93433594 36.15988281 29.47414063 36.57367188 29 37 C29.45375 37.37125 29.9075 37.7425 30.375 38.125 C34.15496679 42.48650014 34.32240671 48.04297691 34.6328125 53.5859375 C34.67437469 54.28772125 34.71593689 54.989505 34.75875854 55.71255493 C34.88851069 57.93300922 35.00693312 60.15389687 35.125 62.375 C35.21148892 63.88936598 35.29872111 65.40368969 35.38671875 66.91796875 C35.5997423 70.61152971 35.80261659 74.3055664 36 78 C32.7 78 29.4 78 26 78 C24.91165825 70.68341683 24.67542038 63.38723272 24.4375 56 C24.39431641 54.74832031 24.35113281 53.49664062 24.30664062 52.20703125 C24.20121983 49.13811477 24.09909658 46.06912611 24 43 C19.09574976 40.24420876 19.09574976 40.24420876 9 40 C9 52.54 9 65.08 9 78 C6.03 78 3.06 78 0 78 C0 52.26 0 26.52 0 0 Z M9 6 C9 15.24 9 24.48 9 34 C13.29 34 17.58 34 22 34 C25.14950936 29.91628211 25.14950936 29.91628211 25.36328125 25.33984375 C25.36263672 24.46392578 25.36199219 23.58800781 25.36132812 22.68554688 C25.34521484 21.77869141 25.32910156 20.87183594 25.3125 19.9375 C25.31572266 19.02677734 25.31894531 18.11605469 25.32226562 17.17773438 C25.37741558 11.77484846 25.37741558 11.77484846 23 7 C18.78779356 5.4202491 18.78779356 5.4202491 9 6 Z " fill="#000000" transform="translate(483,273)"/>
<path d="M0 0 C27.89285714 0 27.89285714 0 32.8125 4.75 C36.16544956 11.10295706 35.94250506 20.67097675 34.43359375 27.6015625 C33.20082936 31.5644805 32.1346556 34.19022467 29 37 C29.45375 37.37125 29.9075 37.7425 30.375 38.125 C34.15496679 42.48650014 34.32240671 48.04297691 34.6328125 53.5859375 C34.67437469 54.28772125 34.71593689 54.989505 34.75875854 55.71255493 C34.88851069 57.93300922 35.00693312 60.15389687 35.125 62.375 C35.21148892 63.88936598 35.29872111 65.40368969 35.38671875 66.91796875 C35.5997423 70.61152971 35.80261659 74.3055664 36 78 C32.7 78 29.4 78 26 78 C24.91165825 70.68341683 24.67542038 63.38723272 24.4375 56 C24.39431641 54.74832031 24.35113281 53.49664062 24.30664062 52.20703125 C24.20121983 49.13811477 24.09909658 46.06912611 24 43 C19.09574976 40.24420876 19.09574976 40.24420876 9 40 C9 52.54 9 65.08 9 78 C6.03 78 3.06 78 0 78 C0 52.26 0 26.52 0 0 Z M9 6 C9 15.24 9 24.48 9 34 C13.29 34 17.58 34 22 34 C25.14950936 29.91628211 25.14950936 29.91628211 25.36328125 25.33984375 C25.36263672 24.46392578 25.36199219 23.58800781 25.36132812 22.68554688 C25.34521484 21.77869141 25.32910156 20.87183594 25.3125 19.9375 C25.31572266 19.02677734 25.31894531 18.11605469 25.32226562 17.17773438 C25.37741558 11.77484846 25.37741558 11.77484846 23 7 C18.78779356 5.4202491 18.78779356 5.4202491 9 6 Z " fill="#000000" transform="translate(337,273)"/>
<path d="M0 0 C4.17815911 3.42823312 6.1210091 7.58516209 6.81298828 12.86499023 C6.96525424 16.23917247 6.99191788 19.59119514 6.96875 22.96875 C6.9725769 24.20363159 6.97640381 25.43851318 6.98034668 26.71081543 C6.98305986 29.31291523 6.97574059 31.91504258 6.95898438 34.51708984 C6.93756864 38.48727551 6.95880884 42.4556515 6.984375 46.42578125 C6.98173162 48.96094147 6.97660644 51.49610057 6.96875 54.03125 C6.97684692 55.2116687 6.98494385 56.3920874 6.99328613 57.60827637 C6.91503504 64.52662327 6.19928614 69.13410534 2.4375 75 C-2.95150448 79.17647847 -8.94538111 79.62594368 -15.5625 79 C-20.05886639 77.80565268 -23.79628684 75.79073655 -26.5625 72 C-28.65671749 65.41246034 -28.86927464 59.25762876 -28.86328125 52.37890625 C-28.86756638 51.2795726 -28.8718515 50.18023895 -28.87626648 49.04759216 C-28.88198686 46.73217454 -28.88252703 44.41673896 -28.87817383 42.10131836 C-28.875013 38.57699685 -28.89850587 35.0535149 -28.92382812 31.52929688 C-28.9261014 29.27083438 -28.92680448 27.01236965 -28.92578125 24.75390625 C-28.934991 23.70989151 -28.94420074 22.66587677 -28.95368958 21.59022522 C-28.9075742 14.22693858 -28.4735341 6.985676 -23.125 1.5 C-16.4132055 -2.42885531 -7.29884094 -2.04879746 0 0 Z M-16.5625 7 C-20.00654934 12.97043176 -20.00459611 19.9280737 -19.9609375 26.625 C-19.96380768 27.61193848 -19.96667786 28.59887695 -19.96963501 29.61572266 C-19.97166463 31.68978453 -19.9662125 33.76386603 -19.95361328 35.83789062 C-19.9375442 38.99132569 -19.95350011 42.14347924 -19.97265625 45.296875 C-19.97067362 47.32291946 -19.96682955 49.34896314 -19.9609375 51.375 C-19.96701019 52.30650879 -19.97308289 53.23801758 -19.9793396 54.19775391 C-19.91635958 60.13330204 -19.22701121 65.61447382 -16.5625 71 C-13.37719457 72.59265271 -10.02147398 72.52451655 -6.5625 72 C-3.75600358 69.37456786 -2.65287769 66.55542863 -2.42878723 62.69876099 C-2.42306953 61.34571365 -2.42306953 61.34571365 -2.41723633 59.96533203 C-2.41085648 58.94061798 -2.40447662 57.91590393 -2.39790344 56.86013794 C-2.39679062 55.75387054 -2.3956778 54.64760315 -2.39453125 53.5078125 C-2.39120285 52.36972137 -2.38787445 51.23163025 -2.38444519 50.05905151 C-2.37937928 47.64988611 -2.37703676 45.24071369 -2.37719727 42.83154297 C-2.37501286 39.14669209 -2.35685903 35.46214155 -2.33789062 31.77734375 C-2.33495623 29.43750102 -2.33297174 27.09765688 -2.33203125 24.7578125 C-2.32484573 23.65559357 -2.31766022 22.55337463 -2.31025696 21.41775513 C-2.31333359 20.38673676 -2.31641022 19.35571838 -2.31958008 18.29345703 C-2.31815506 17.38983429 -2.31673004 16.48621155 -2.31526184 15.5552063 C-2.6881982 11.70090915 -3.63799257 8.89369052 -6.4375 6.1875 C-10.14117038 4.11780185 -13.19743729 4.74029989 -16.5625 7 Z " fill="#000000" transform="translate(683.5625,273)"/>
<path d="M0 0 C3.47364332 2.55952666 5.01481862 4.66945586 6.375 8.75 C6.48315467 10.59372041 6.53381389 12.44104143 6.55200195 14.2878418 C6.57125481 15.99057503 6.57125481 15.99057503 6.59089661 17.72770691 C6.59828354 18.95580582 6.60567047 20.18390472 6.61328125 21.44921875 C6.621353 22.71337112 6.62942474 23.9775235 6.63774109 25.27998352 C6.65158355 27.95907251 6.66259881 30.63803841 6.67016602 33.31713867 C6.68119983 36.73225612 6.71556807 40.14671649 6.75533772 43.56160259 C6.78793661 46.83657548 6.79229466 50.11160837 6.80078125 53.38671875 C6.81828934 54.6046965 6.83579742 55.82267426 6.85383606 57.07756042 C6.83595215 64.11307801 6.23254823 68.79806355 2.375 74.75 C-2.86896424 78.81407229 -8.1345746 79.19971112 -14.625 78.75 C-19.62045624 77.9033125 -22.57050159 76.66472196 -25.63716125 72.49307251 C-29.23772996 66.13975588 -28.93222869 58.66974267 -28.92578125 51.6015625 C-28.93006638 50.54899261 -28.9343515 49.49642273 -28.93876648 48.41195679 C-28.94448559 46.19489254 -28.94502798 43.97780954 -28.94067383 41.76074219 C-28.93751617 38.39224823 -28.96099637 35.0246355 -28.98632812 31.65625 C-28.98860178 29.4921886 -28.98930431 27.32812486 -28.98828125 25.1640625 C-28.997491 24.1689566 -29.00670074 23.17385071 -29.01618958 22.14859009 C-28.97432443 15.73357772 -28.33546446 9.6443802 -25.625 3.75 C-18.49100038 -2.34362467 -8.74520565 -3.01558815 0 0 Z M-16.625 6.75 C-20.61055104 12.4136778 -19.78430608 20.65418832 -19.79296875 27.3046875 C-19.79629715 28.20567169 -19.79962555 29.10665588 -19.80305481 30.03494263 C-19.80809558 31.93263238 -19.81046402 33.83033091 -19.81030273 35.72802734 C-19.81248802 38.60920005 -19.83067092 41.48998867 -19.84960938 44.37109375 C-19.85254426 46.22395704 -19.85452842 48.07682213 -19.85546875 49.9296875 C-19.86265427 50.77997528 -19.86983978 51.63026306 -19.87724304 52.50631714 C-19.98142949 62.07284849 -19.98142949 62.07284849 -16.17277527 70.47750854 C-13.71448886 72.49856969 -11.56525326 72.22200471 -8.49609375 72.109375 C-6.4226468 71.88353075 -6.4226468 71.88353075 -4.6875 69.9375 C-2.94794052 66.35605402 -2.49316315 63.57290579 -2.46386719 59.6394043 C-2.45425964 58.59789719 -2.4446521 57.55639008 -2.43475342 56.48332214 C-2.43050354 55.35831802 -2.42625366 54.2333139 -2.421875 53.07421875 C-2.41332489 51.3373455 -2.41332489 51.3373455 -2.40460205 49.56538391 C-2.39515004 47.11334142 -2.38861728 44.6612862 -2.38476562 42.20922852 C-2.37506558 38.46282714 -2.34404548 34.71697559 -2.3125 30.97070312 C-2.30596934 28.58854492 -2.30071912 26.2063828 -2.296875 23.82421875 C-2.2845282 22.70528732 -2.2721814 21.5863559 -2.25946045 20.43351746 C-2.24408585 12.64531455 -2.24408585 12.64531455 -5.625 5.75 C-9.79571624 4.53670073 -13.06754254 3.98308864 -16.625 6.75 Z " fill="#000000" transform="translate(460.625,273.25)"/>
<path d="M0 0 C3.47364332 2.55952666 5.01481862 4.66945586 6.375 8.75 C6.48315467 10.59372041 6.53381389 12.44104143 6.55200195 14.2878418 C6.57125481 15.99057503 6.57125481 15.99057503 6.59089661 17.72770691 C6.59828354 18.95580582 6.60567047 20.18390472 6.61328125 21.44921875 C6.621353 22.71337112 6.62942474 23.9775235 6.63774109 25.27998352 C6.65158355 27.95907251 6.66259881 30.63803841 6.67016602 33.31713867 C6.68119983 36.73225612 6.71556807 40.14671649 6.75533772 43.56160259 C6.78793661 46.83657548 6.79229466 50.11160837 6.80078125 53.38671875 C6.81828934 54.6046965 6.83579742 55.82267426 6.85383606 57.07756042 C6.83595215 64.11307801 6.23254823 68.79806355 2.375 74.75 C-2.86896424 78.81407229 -8.1345746 79.19971112 -14.625 78.75 C-19.62045624 77.9033125 -22.57050159 76.66472196 -25.63716125 72.49307251 C-29.23772996 66.13975588 -28.93222869 58.66974267 -28.92578125 51.6015625 C-28.93006638 50.54899261 -28.9343515 49.49642273 -28.93876648 48.41195679 C-28.94448559 46.19489254 -28.94502798 43.97780954 -28.94067383 41.76074219 C-28.93751617 38.39224823 -28.96099637 35.0246355 -28.98632812 31.65625 C-28.98860178 29.4921886 -28.98930431 27.32812486 -28.98828125 25.1640625 C-28.997491 24.1689566 -29.00670074 23.17385071 -29.01618958 22.14859009 C-28.97432443 15.73357772 -28.33546446 9.6443802 -25.625 3.75 C-18.49100038 -2.34362467 -8.74520565 -3.01558815 0 0 Z M-16.625 6.75 C-20.61055104 12.4136778 -19.78430608 20.65418832 -19.79296875 27.3046875 C-19.79629715 28.20567169 -19.79962555 29.10665588 -19.80305481 30.03494263 C-19.80809558 31.93263238 -19.81046402 33.83033091 -19.81030273 35.72802734 C-19.81248802 38.60920005 -19.83067092 41.48998867 -19.84960938 44.37109375 C-19.85254426 46.22395704 -19.85452842 48.07682213 -19.85546875 49.9296875 C-19.86265427 50.77997528 -19.86983978 51.63026306 -19.87724304 52.50631714 C-19.98142949 62.07284849 -19.98142949 62.07284849 -16.17277527 70.47750854 C-13.71448886 72.49856969 -11.56525326 72.22200471 -8.49609375 72.109375 C-6.4226468 71.88353075 -6.4226468 71.88353075 -4.6875 69.9375 C-2.94794052 66.35605402 -2.49316315 63.57290579 -2.46386719 59.6394043 C-2.45425964 58.59789719 -2.4446521 57.55639008 -2.43475342 56.48332214 C-2.43050354 55.35831802 -2.42625366 54.2333139 -2.421875 53.07421875 C-2.41332489 51.3373455 -2.41332489 51.3373455 -2.40460205 49.56538391 C-2.39515004 47.11334142 -2.38861728 44.6612862 -2.38476562 42.20922852 C-2.37506558 38.46282714 -2.34404548 34.71697559 -2.3125 30.97070312 C-2.30596934 28.58854492 -2.30071912 26.2063828 -2.296875 23.82421875 C-2.2845282 22.70528732 -2.2721814 21.5863559 -2.25946045 20.43351746 C-2.24408585 12.64531455 -2.24408585 12.64531455 -5.625 5.75 C-9.79571624 4.53670073 -13.06754254 3.98308864 -16.625 6.75 Z " fill="#000000" transform="translate(314.625,273.25)"/>
<path d="M0 0 C1.12148438 -0.02578125 2.24296875 -0.0515625 3.3984375 -0.078125 C8.14056164 0.40412491 10.64795033 2.2186698 13.875 5.625 C17.33420647 10.81380971 16.74927652 16.54166558 16.6875 22.5625 C16.68298828 23.39845703 16.67847656 24.23441406 16.67382812 25.09570312 C16.66210548 27.14716649 16.64417203 29.19859273 16.625 31.25 C13.655 31.25 10.685 31.25 7.625 31.25 C7.57601562 30.24839844 7.52703125 29.24679687 7.4765625 28.21484375 C7.40145921 26.87237241 7.32591474 25.5299257 7.25 24.1875 C7.18039062 22.87652344 7.11078125 21.56554687 7.0390625 20.21484375 C6.63081325 16.30566457 5.97890222 12.93869278 4.625 9.25 C1.80967943 6.96007316 1.80967943 6.96007316 -1.375 7.3125 C-4.49269639 7.98785244 -4.49269639 7.98785244 -6.1875 10.4375 C-8.64741761 16.26362065 -8.53467562 22.23425606 -8.54296875 28.453125 C-8.54629715 29.33095642 -8.54962555 30.20878784 -8.55305481 31.11322021 C-8.55810133 32.96561156 -8.56046384 34.81801194 -8.56030273 36.67041016 C-8.56248217 39.47704393 -8.58064278 42.28327975 -8.59960938 45.08984375 C-8.60254534 46.89843617 -8.60452877 48.70703044 -8.60546875 50.515625 C-8.61265427 51.34201477 -8.61983978 52.16840454 -8.62724304 53.01983643 C-8.77875715 63.43572079 -8.77875715 63.43572079 -4.375 72.25 C-2.16427023 72.49253813 -2.16427023 72.49253813 0.25 72.375 C1.06726563 72.35695313 1.88453125 72.33890625 2.7265625 72.3203125 C3.35304688 72.29710937 3.97953125 72.27390625 4.625 72.25 C6.51349677 64.29264468 7.17848122 56.40484303 7.625 48.25 C10.595 48.25 13.565 48.25 16.625 48.25 C17.442991 69.10877061 17.442991 69.10877061 12.625 76.25 C10.125 78.3125 10.125 78.3125 7.625 79.25 C7.026875 79.476875 6.42875 79.70375 5.8125 79.9375 C-0.82468153 80.88566879 -6.45041122 80.50194095 -12.375 77.25 C-17.24512108 72.89252325 -18.09997387 66.94704686 -18.56802368 60.65527344 C-18.65372355 57.83086221 -18.67842196 55.013205 -18.67578125 52.1875 C-18.68006638 51.15616943 -18.6843515 50.12483887 -18.68876648 49.06225586 C-18.69447822 46.8940504 -18.6950335 44.72582579 -18.69067383 42.55761719 C-18.68750905 39.25943085 -18.7110301 35.9621386 -18.73632812 32.6640625 C-18.73860112 30.54687612 -18.73930462 28.42968735 -18.73828125 26.3125 C-18.747491 25.33724365 -18.75670074 24.3619873 -18.76618958 23.35717773 C-18.72311008 16.91635766 -18.39092887 9.70921372 -13.95845032 4.62524414 C-9.44844788 0.70825706 -5.80659469 0.07972441 0 0 Z " fill="#000000" transform="translate(597.375,271.75)"/>
<path d="M0 0 C4.06916807 3.53840702 5.59804366 7.6503253 6.11132812 12.93164062 C6.16850816 15.46136416 6.138257 17.9708816 6.0625 20.5 C6.04219727 21.80517578 6.04219727 21.80517578 6.02148438 23.13671875 C5.98651678 25.25808627 5.9327253 27.37912974 5.875 29.5 C2.905 29.5 -0.065 29.5 -3.125 29.5 C-3.16238281 28.42621094 -3.19976562 27.35242188 -3.23828125 26.24609375 C-3.30399112 24.8098638 -3.37043668 23.37366738 -3.4375 21.9375 C-3.46005859 21.23302734 -3.48261719 20.52855469 -3.50585938 19.80273438 C-3.76207152 14.74836761 -4.7111303 10.97715356 -7.125 6.5 C-10.01572953 5.17091833 -10.01572953 5.17091833 -13.125 5.5 C-15.43833301 6.87571189 -16.82727443 7.83978733 -17.94433594 10.31689453 C-19.48423796 18.44576555 -19.42711292 26.58665257 -19.38574219 34.83056641 C-19.37505256 37.36254999 -19.38566718 39.89381963 -19.3984375 42.42578125 C-19.4905909 55.59812649 -19.4905909 55.59812649 -17.125 68.5 C-15.18265911 70.88785276 -15.18265911 70.88785276 -11.625 70.6875 C-8.27535297 70.74131237 -8.27535297 70.74131237 -6.125 69.5 C-3.59842119 62.06888584 -3.50973298 54.27565601 -3.125 46.5 C-0.155 46.5 2.815 46.5 5.875 46.5 C5.95674796 49.33392926 6.01584985 52.16544819 6.0625 55 C6.08763672 55.79148437 6.11277344 56.58296875 6.13867188 57.3984375 C6.21973666 63.99170685 5.16962212 69.49325377 1.0625 74.875 C-3.81785502 78.50040658 -9.17579389 79.20187263 -15.125 78.5 C-19.60385835 77.53093792 -22.39539622 76.30640417 -25.5 72.875 C-29.05199864 65.49777205 -29.4337134 57.98995232 -29.42578125 49.91015625 C-29.43006638 48.92558945 -29.4343515 47.94102264 -29.43876648 46.92662048 C-29.44447646 44.85676844 -29.44503482 42.78689634 -29.44067383 40.71704102 C-29.43751225 37.57468009 -29.46102112 34.43326066 -29.48632812 31.29101562 C-29.48860151 29.26823034 -29.48930443 27.24544255 -29.48828125 25.22265625 C-29.497491 24.29630875 -29.50670074 23.36996124 -29.51618958 22.4155426 C-29.47039129 15.86320348 -29.09348324 8.04724714 -24.70845032 2.80726624 C-18.3415677 -2.70041578 -7.6232177 -3.71345583 0 0 Z " fill="#000000" transform="translate(267.125,273.5)"/>
<path d="M0 0 C1.23556641 0.01740234 1.23556641 0.01740234 2.49609375 0.03515625 C3.32238281 0.04417969 4.14867187 0.05320312 5 0.0625 C5.63808594 0.07410156 6.27617188 0.08570313 6.93359375 0.09765625 C8.45879586 4.4498318 9.61840853 8.78209747 10.62939453 13.28051758 C10.78574371 13.97229095 10.9420929 14.66406433 11.10317993 15.37680054 C11.61473885 17.64376942 12.12189576 19.91169742 12.62890625 22.1796875 C12.98453299 23.76060772 13.3404021 25.34147343 13.69650269 26.92228699 C14.43968811 30.22438302 15.18085448 33.52692315 15.92041016 36.82983398 C16.87033009 41.07208774 17.82390355 45.31350937 18.77879524 49.55464649 C19.51233273 52.81338044 20.24466779 56.07238354 20.97655869 59.33148766 C21.32802363 60.89650848 21.67970045 62.46148173 22.03158951 64.02640724 C22.52104313 66.20461086 23.00904685 68.38313387 23.49658203 70.56176758 C23.91389084 72.42325188 23.91389084 72.42325188 24.33963013 74.32234192 C24.93359375 77.09765625 24.93359375 77.09765625 24.93359375 78.09765625 C21.63359375 78.09765625 18.33359375 78.09765625 14.93359375 78.09765625 C13.94359375 73.14765625 12.95359375 68.19765625 11.93359375 63.09765625 C5.99359375 62.76765625 0.05359375 62.43765625 -6.06640625 62.09765625 C-7.05640625 67.37765625 -8.04640625 72.65765625 -9.06640625 78.09765625 C-12.03640625 78.09765625 -15.00640625 78.09765625 -18.06640625 78.09765625 C-16.70345538 68.61897239 -14.97510125 59.24485541 -13.0625 49.86328125 C-12.77613464 48.4493928 -12.4899286 47.03547208 -12.20387268 45.621521 C-11.61003471 42.68997183 -11.01394958 39.75889117 -10.41625977 36.828125 C-9.64934378 33.06634966 -8.88877727 29.30332131 -8.12988186 25.53992081 C-7.54323686 22.63471824 -6.95304265 19.73024559 -6.36177254 16.82598114 C-6.07951463 15.43708664 -5.79843621 14.0479519 -5.51855278 12.65857697 C-5.12987992 10.73160364 -4.73585644 8.80571183 -4.34155273 6.87988281 C-4.11886215 5.78436096 -3.89617157 4.68883911 -3.66673279 3.56011963 C-2.83142927 0.13381046 -2.83142927 0.13381046 0 0 Z M1.93359375 17.09765625 C0.93436056 22.32996317 -0.06249544 27.56271518 -1.05712891 32.79589844 C-1.39598969 34.57694813 -1.73550541 36.35787334 -2.07568359 38.13867188 C-2.56388903 40.69498956 -3.04975499 43.25174231 -3.53515625 45.80859375 C-3.68827271 46.60760101 -3.84138916 47.40660828 -3.99914551 48.22982788 C-4.78199361 52.13620026 -4.78199361 52.13620026 -5.06640625 56.09765625 C0.21359375 56.09765625 5.49359375 56.09765625 10.93359375 56.09765625 C9.56470871 47.69422308 8.07464869 39.32711776 6.43359375 30.97265625 C6.22089844 29.85117187 6.00820313 28.7296875 5.7890625 27.57421875 C5.57894531 26.506875 5.36882813 25.43953125 5.15234375 24.33984375 C4.96607422 23.37933105 4.77980469 22.41881836 4.58789062 21.42919922 C4.09161411 18.9291743 4.09161411 18.9291743 1.93359375 17.09765625 Z " fill="#000000" transform="translate(545.06640625,272.90234375)"/>
<path d="M0 0 C26.76923077 0 26.76923077 0 31.75 4.625 C36.83099775 14.27889572 36.20014521 27.52994246 33.75 37.875 C32.45200401 41.5526553 30.94244772 43.38449091 28 46 C21.52966443 48.90504862 16.55215852 48 9 48 C9 57.9 9 67.8 9 78 C6.03 78 3.06 78 0 78 C0 52.26 0 26.52 0 0 Z M9 6 C9 17.55 9 29.1 9 41 C12.96 41 16.92 41 21 41 C26.15534341 35.84465659 25.21609186 30.52530719 25.25 23.625 C25.270625 22.5834375 25.29125 21.541875 25.3125 20.46875 C25.47333724 13.19427411 25.47333724 13.19427411 22 7 C18.73289481 5.18010841 18.73289481 5.18010841 9 6 Z " fill="#000000" transform="translate(387,273)"/>
<path d="M0 0 C3.3 0 6.6 0 10 0 C10 25.74 10 51.48 10 78 C6.7 78 3.4 78 0 78 C0 52.26 0 26.52 0 0 Z " fill="#000000" transform="translate(629,273)"/>
<path d="M0 0 C0 2.64 0 5.28 0 8 C-3.08252089 8.50509639 -6.16613525 9.00317999 -9.25 9.5 C-10.12269531 9.64308594 -10.99539063 9.78617187 -11.89453125 9.93359375 C-13.16103516 10.13662109 -13.16103516 10.13662109 -14.453125 10.34375 C-15.22817383 10.46943359 -16.00322266 10.59511719 -16.80175781 10.72460938 C-19 11 -19 11 -23 11 C-23 9.68 -23 8.36 -23 7 C-19.54329268 5.82847622 -16.08437878 4.66360923 -12.625 3.5 C-11.64015625 3.16613281 -10.6553125 2.83226562 -9.640625 2.48828125 C-8.69960938 2.17246094 -7.75859375 1.85664063 -6.7890625 1.53125 C-5.91975098 1.23798828 -5.05043945 0.94472656 -4.15478516 0.64257812 C-2 0 -2 0 0 0 Z " fill="#000000" transform="translate(685,257)"/>
</svg>
